<?xml version="1.0" encoding="UTF-8" standalone="no"?>
<!-- Created with Inkscape (http://www.inkscape.org/) -->

<svg
   xmlns:dc="http://purl.org/dc/elements/1.1/"
   xmlns:cc="http://creativecommons.org/ns#"
   xmlns:rdf="http://www.w3.org/1999/02/22-rdf-syntax-ns#"
   xmlns:svg="http://www.w3.org/2000/svg"
   xmlns="http://www.w3.org/2000/svg"
   xmlns:sodipodi="http://sodipodi.sourceforge.net/DTD/sodipodi-0.dtd"
   xmlns:inkscape="http://www.inkscape.org/namespaces/inkscape"
   width="252"
   height="199"
   id="svg2"
   version="1.0"
   inkscape:version="0.47 r22583"
   sodipodi:docname="Question_book.svg"
   inkscape:export-filename="myOPDS.png"
   inkscape:export-xdpi="22.860001"
   inkscape:export-ydpi="22.860001">
  <metadata
     id="metadata10">
    <rdf:RDF>
      <cc:Work
         rdf:about="">
        <dc:format>image/svg+xml</dc:format>
        <dc:type
           rdf:resource="http://purl.org/dc/dcmitype/StillImage" />
        <dc:title></dc:title>
      </cc:Work>
    </rdf:RDF>
  </metadata>
  <defs
     id="defs8">
    <inkscape:perspective
       sodipodi:type="inkscape:persp3d"
       inkscape:vp_x="0 : 99.5 : 1"
       inkscape:vp_y="0 : 1000 : 0"
       inkscape:vp_z="252 : 99.5 : 1"
       inkscape:persp3d-origin="126 : 66.333333 : 1"
       id="perspective12" />
  </defs>
  <sodipodi:namedview
     pagecolor="#ffffff"
     bordercolor="#666666"
     borderopacity="1"
     objecttolerance="10"
     gridtolerance="10"
     guidetolerance="10"
     inkscape:pageopacity="0"
     inkscape:pageshadow="2"
     inkscape:window-width="1024"
     inkscape:window-height="695"
     id="namedview6"
     showgrid="false"
     inkscape:zoom="1.1859296"
     inkscape:cx="126"
     inkscape:cy="121.66343"
     inkscape:window-x="0"
     inkscape:window-y="25"
     inkscape:window-maximized="1"
     inkscape:current-layer="g3" />
  <g
     transform="translate(-135.06609,-358.03129)"
     id="g3">
    <path
       style="fill:#f28500;fill-opacity:1"
       d="m 188.40239,548.4893 c -0.55492,-0.68144 -3.0601,-6.18899 -5.56707,-12.23899 -9.63633,-23.25513 -17.77464,-43.03692 -29.11043,-70.75869 l -11.7598,-28.75869 1.60981,-3.39244 c 0.8854,-1.86584 1.60982,-4.48026 1.60982,-5.80981 0,-1.32955 0.68875,-4.73663 1.53055,-7.57128 1.14139,-3.84349 2.47624,-5.8566 5.25,-7.91764 2.0457,-1.52006 7.99445,-6.7605 13.21945,-11.64544 16.74865,-15.65858 27.9028,-21.64601 40.32498,-21.64601 5.43279,0 6.95133,0.42174 10.27498,2.8536 2.14502,1.56948 4.75728,3.81948 5.80503,5 2.74537,3.09328 4.08617,2.68557 6.91788,-2.1036 3.53961,-5.98642 9.33413,-11.27925 15.16643,-13.8533 4.3161,-1.90488 7.68931,-2.31426 25,-3.03403 11.00588,-0.45763 21.69272,-1.11253 23.74853,-1.45534 4.39236,-0.73245 0.29065,-4.49224 45.65456,41.84879 l 30.10761,30.75611 0,4.43628 c 0,3.99543 0.59452,5.11279 5.98262,11.24389 5.91004,6.72502 5.98283,6.88193 6,12.93516 0.0105,3.71698 -0.47437,6.52428 -1.23262,7.13602 -0.6875,0.55466 -5.975,1.77615 -11.75,2.71442 -5.775,0.93828 -22.74655,4.13956 -37.71455,7.11398 -14.968,2.97441 -27.45074,5.40802 -27.73941,5.40802 -0.28868,0 -2.98599,2.2288 -5.99403,4.9529 -8.3135,7.52874 -10.65092,8.48479 -21.12037,8.63862 l -9.06835,0.13324 -14.32601,7.72018 c -16.78645,9.04608 -30.89461,17.66034 -47.53728,29.02565 -14.97119,10.22385 -14.0818,9.74266 -15.28233,8.2684 z m 14.28233,-18.87074 c 10.45285,-8.85174 29.21955,-22.61353 36.03599,-26.4255 9.93878,-5.55808 16.15279,-7.62841 24.96401,-8.31729 l 8,-0.62546 1.12955,-5.72034 c 0.62126,-3.14618 1.88187,-7.60057 2.80137,-9.89863 1.07111,-2.67694 1.32599,-4.52412 0.70934,-5.14077 -0.52936,-0.52936 -4.26498,-0.94822 -8.30137,-0.93078 -13.80289,0.0596 -27.0538,6.09833 -44.33889,20.20611 -5.5,4.48901 -14.1625,11.29405 -19.25,15.12232 -8.82579,6.64129 -9.25,7.13496 -9.25,10.76461 0,2.09225 -0.28911,6.57011 -0.64246,9.95079 -0.80965,7.74632 0.0648,7.85532 8.14246,1.01494 z m -12.26521,-8.61825 0.46779,-6.75 -18.94418,-45 c -10.4193,-24.75 -19.34488,-45.42 -19.83462,-45.93333 -1.5028,-1.57518 -2.28076,0.22035 -2.71869,6.27479 -0.39563,5.46952 0.0923,7.01817 8.57962,27.22895 16.56735,39.45188 28.43664,67.4139 29.36527,69.17959 1.70885,3.24917 2.61491,1.7806 3.08481,-5 z m 11.18229,-17.18724 c 3.58764,-2.71548 9.79897,-7.79063 13.80295,-11.27811 19.69018,-17.15021 35.30909,-24.78465 50.7057,-24.78465 4.46083,0 6.29022,-0.39918 6.69788,-1.46151 0.31859,-0.83024 -1.78156,-4.82565 -4.86217,-9.25 -2.98264,-4.28367 -10.31328,-14.76349 -16.29029,-23.28849 -5.97701,-8.525 -14.10395,-20.225 -18.05986,-26 -7.47911,-10.9183 -18.27336,-22.23666 -22.87577,-23.9865 -6.49546,-2.46956 -17.61889,0.49835 -27.35308,7.29825 -8.00698,5.59334 -27.60389,23.64247 -27.98809,25.77757 -0.16811,0.93421 7.10215,19.18379 16.15614,40.55462 21.45494,50.64177 21.77104,51.35606 22.72726,51.35606 0.44899,0 3.75168,-2.22176 7.33933,-4.93724 z m 98.7677,-25.34834 c 9.17362,-9.12247 13.39339,-10.19378 45.58613,-11.5733 10.70993,-0.45894 18.71893,-1.23096 19.35355,-1.86558 0.77685,-0.77685 0.77095,-2.53601 -0.0209,-6.22831 -0.60695,-2.83012 -1.10355,-6.86842 -1.10355,-8.97401 0,-6.02945 -0.8029,-6.26228 -17.63549,-5.11415 -29.46991,2.01011 -44.58297,6.23224 -52.9139,14.78254 -3.82335,3.92402 -11.03249,17.00984 -9.96116,18.08118 0.33981,0.3398 2.19394,0.48203 4.12031,0.31606 3.10993,-0.26794 3.63284,0.0436 4.6656,2.7797 0.63971,1.6948 1.48511,3.08145 1.87866,3.08145 0.39355,0 3.10739,-2.37851 6.03076,-5.28558 l -10e-6,0 z m -15.39617,-16.55209 c 2.49289,-4.43551 10.51227,-12.23232 14.93257,-14.51815 6.26566,-3.2401 18.15637,-5.65871 35.19983,-7.15976 22.49355,-1.98106 24.27798,-2.27629 23.89134,-3.95266 -0.17179,-0.74482 -14.86111,-16.0534 -32.64293,-34.01906 -24.865,-25.12208 -32.71607,-32.49785 -34,-31.94169 -0.91818,0.39773 -10.44442,1.05533 -21.16942,1.46134 -23.30558,0.88226 -28.10473,2.09622 -34.11046,8.62837 -3.39423,3.69174 -7.88954,10.49193 -7.88954,11.93473 0,0.62215 2.1375,4.06507 4.75,7.65092 2.6125,3.58585 7.675,10.71041 11.25,15.83235 25.6913,36.8082 35.29508,49.92128 36.56143,49.92128 0.58866,0 2.04089,-1.72695 3.22718,-3.83767 z"
       id="path2176"
       sodipodi:nodetypes="cscccssssssssssscccssssssscccsccscccsssssssccccssssccsssssssssssccsssssssssscccsssssssssscc" />
  </g>
</svg>
